<?xml version="1.0" standalone="no"?>
<!DOCTYPE svg PUBLIC "-//W3C//DTD SVG 20010904//EN"
 "http://www.w3.org/TR/2001/REC-SVG-20010904/DTD/svg10.dtd">
<svg version="1.0" xmlns="http://www.w3.org/2000/svg"
 width="2000.000000pt" height="2000.000000pt" viewBox="0 0 2000.000000 2000.000000"
 preserveAspectRatio="xMidYMid meet">

<g transform="translate(0.000000,2000.000000) scale(0.100000,-0.100000)"
fill="#006bd6" stroke="none">
<path d="M0 10000 l0 -10000 10000 0 10000 0 0 10000 0 10000 -10000 0 -10000
0 0 -10000z m12699 6344 c12 -15 21 -37 21 -50 0 -35 32 -61 97 -80 32 -9 84
-30 116 -46 l58 -29 44 25 c24 15 52 26 62 26 22 0 163 -146 163 -169 0 -9
-11 -33 -25 -53 -14 -20 -25 -42 -25 -48 0 -6 13 -36 29 -68 15 -31 36 -82 46
-112 23 -71 27 -76 79 -89 24 -6 49 -18 56 -27 17 -20 17 -208 1 -228 -7 -8
-31 -19 -55 -25 -53 -13 -58 -19 -86 -106 -12 -38 -33 -89 -46 -112 -30 -52
-30 -56 1 -101 14 -20 25 -43 25 -52 0 -8 -35 -50 -77 -92 -79 -79 -108 -93
-133 -63 -26 31 -75 29 -152 -7 -40 -19 -86 -38 -101 -42 -35 -8 -77 -49 -77
-74 0 -10 -9 -28 -20 -40 -19 -20 -31 -22 -120 -22 -108 0 -126 8 -137 61 -8
40 -42 67 -107 84 -32 8 -77 26 -100 40 -52 30 -71 31 -114 5 -18 -11 -40 -20
-50 -20 -22 0 -172 150 -172 172 0 10 9 32 20 50 27 44 26 57 -15 145 -19 42
-35 80 -35 85 0 6 -7 25 -16 43 -12 27 -27 38 -64 50 -27 9 -51 23 -54 31 -3
9 -6 58 -6 109 0 104 6 118 65 134 49 13 59 26 84 111 12 41 31 90 42 108 24
42 24 63 -1 104 -11 18 -20 41 -20 51 0 18 120 151 153 169 14 7 28 3 60 -18
50 -33 63 -33 131 0 28 13 75 32 105 42 62 19 91 44 91 78 0 13 9 35 21 50 20
25 24 26 119 26 95 0 99 -1 119 -26z m-3949 -1254 c0 -14 2 -14 -405 -146
-198 -64 -472 -154 -610 -199 -137 -46 -403 -133 -590 -194 l-341 -111 -246 0
c-136 0 -249 4 -252 9 -9 13 15 29 59 39 38 10 699 232 1460 491 l350 120 288
0 c189 1 287 -2 287 -9z m177 -1440 c2 -784 -1 -1430 -5 -1436 -4 -6 -191 -73
-417 -148 -225 -76 -453 -152 -505 -170 -337 -118 -1172 -387 -1185 -382 -13
5 -15 171 -15 1434 0 1132 3 1432 13 1439 11 9 230 82 902 300 143 47 276 91
295 98 19 7 177 59 350 115 393 126 491 159 510 170 8 5 24 8 35 7 20 -2 20
-10 22 -1427z m3671 678 c-3 -260 -4 -283 -20 -286 -17 -3 -18 16 -18 282 0
280 0 286 20 286 20 0 20 -5 18 -282z m-5853 43 c3 -6 5 -660 5 -1455 0 -1304
1 -1446 16 -1460 14 -14 124 -16 1099 -16 978 0 1083 -2 1089 -16 3 -9 6 -314
6 -678 0 -502 -3 -665 -12 -674 -17 -17 -2829 -17 -2846 0 -9 9 -12 501 -12
2153 0 1178 3 2145 7 2148 10 11 641 8 648 -2z m5760 -10 c3 -6 6 -80 7 -166
1 -124 -2 -159 -13 -166 -28 -20 -298 13 -430 52 -70 20 -159 63 -171 83 -28
43 7 81 110 120 111 42 173 54 397 80 62 7 94 6 100 -3z m308 -6 c151 -17 213
-29 312 -58 108 -31 174 -81 160 -119 -10 -25 -89 -69 -170 -93 -123 -37 -426
-74 -454 -56 -12 8 -14 39 -12 168 2 144 7 172 29 173 2 0 62 -7 135 -15z
m-6783 -701 l0 -625 -25 -45 c-23 -41 -504 -846 -750 -1254 -52 -86 -100 -167
-107 -180 -7 -14 -26 -45 -41 -68 -16 -24 -26 -50 -23 -58 5 -12 81 -14 480
-14 423 0 475 -2 480 -16 3 -9 6 -305 6 -659 0 -529 -2 -645 -14 -654 -10 -8
-299 -10 -1077 -9 l-1064 3 -3 324 c-2 256 1 329 11 350 25 48 58 105 161 276
57 94 203 339 326 545 123 206 254 425 291 485 36 61 75 125 85 144 11 18 24
41 29 50 6 9 71 118 145 241 119 200 195 326 273 455 189 312 768 1287 778
1308 7 15 18 27 26 27 11 0 13 -109 13 -626z m5925 416 c19 -12 100 -40 150
-50 116 -24 360 -49 485 -50 216 0 553 52 632 98 15 9 30 13 34 10 6 -6 -34
-178 -106 -458 -16 -63 -36 -144 -44 -180 -74 -323 -74 -323 -168 -354 -64
-21 -265 -46 -368 -46 -144 0 -344 34 -402 68 -16 9 -32 30 -38 47 -9 28 -124
477 -156 610 -8 33 -28 115 -45 182 -17 67 -28 127 -24 132 5 10 29 5 50 -9z
m2990 -437 c123 -29 207 -58 288 -100 288 -151 485 -407 564 -735 28 -115 25
-376 -6 -488 -70 -260 -224 -479 -441 -632 -123 -86 -108 -80 -715 -283 -192
-65 -399 -135 -460 -155 -329 -113 -817 -271 -822 -267 -2 3 12 20 32 39 111
100 255 319 297 453 50 159 69 368 49 529 -50 409 -354 775 -756 912 -168 57
-170 57 -1625 61 -734 2 -1342 6 -1350 9 -19 8 -16 9 220 89 102 35 318 109
480 165 286 98 343 117 705 241 94 31 244 83 334 113 89 31 174 56 187 56 27
0 41 -21 53 -82 5 -24 25 -107 45 -185 20 -78 36 -146 36 -152 0 -6 9 -35 21
-66 22 -60 64 -97 130 -115 206 -56 613 -53 755 6 93 38 113 69 149 224 9 41
23 95 30 120 7 25 23 89 36 143 12 55 28 105 36 112 11 11 158 13 826 11 783
-2 815 -3 902 -23z m-2239 -723 c199 -19 315 -56 467 -147 241 -145 418 -383
486 -655 138 -550 -167 -1113 -702 -1292 -160 -54 -221 -56 -1434 -56 -709 0
-1114 -4 -1118 -10 -3 -5 -6 -161 -5 -347 0 -198 -4 -344 -10 -353 -8 -13 -56
-15 -315 -18 -204 -2 -311 1 -325 8 -20 11 -20 20 -20 695 0 608 2 685 16 699
14 14 163 16 1487 16 1355 0 1475 1 1517 17 98 36 183 115 229 212 23 49 26
68 26 161 0 99 -2 110 -33 172 -37 75 -114 153 -184 185 -90 42 -114 43 -1604
43 -1099 0 -1433 3 -1442 12 -9 9 -12 95 -12 324 0 172 3 319 6 328 6 15 141
16 1433 16 911 0 1467 -4 1537 -10z m-6665 -575 c0 -370 -4 -551 -11 -560 -6
-7 -21 -15 -33 -18 -12 -2 -114 -37 -227 -76 -113 -40 -252 -88 -310 -107 -58
-20 -133 -46 -167 -60 -65 -25 -93 -30 -93 -15 0 5 78 139 173 298 95 158 233
389 307 513 73 124 143 241 155 260 52 83 144 238 160 270 17 33 35 53 43 46
2 -2 3 -250 3 -551z m6669 -164 c111 -41 179 -99 222 -190 17 -36 22 -66 22
-141 1 -84 -2 -101 -27 -151 -30 -63 -92 -125 -159 -161 l-43 -23 -1370 -5
c-753 -3 -1380 -3 -1393 -1 -44 7 -15 24 109 67 68 23 174 59 234 79 61 21
119 41 130 46 11 4 106 37 210 72 330 112 1118 384 1175 405 53 20 72 21 455
18 293 -1 409 -6 435 -15z m-1792 -3 c-2 -6 -161 -65 -354 -130 -650 -219
-1098 -370 -1362 -459 l-262 -89 -957 0 c-525 0 -958 1 -960 4 -3 3 3 10 14
16 16 10 839 291 908 310 33 9 592 197 695 234 36 13 108 37 160 55 52 17 118
40 145 50 48 19 81 20 1013 21 738 0 963 -3 960 -12z m230 -85 c2 -56 -1 -83
-10 -90 -7 -6 -87 -35 -178 -66 -227 -77 -433 -148 -570 -197 -63 -23 -124
-44 -135 -47 -11 -2 -29 -9 -40 -14 -11 -5 -47 -18 -80 -28 -33 -11 -105 -36
-160 -56 -55 -20 -137 -49 -182 -64 -45 -15 -89 -33 -97 -40 -14 -12 -16 -80
-15 -588 1 -316 -3 -579 -7 -583 -5 -5 -43 -20 -84 -33 -41 -14 -181 -62 -310
-107 -296 -103 -270 -96 -270 -74 -3 823 1 1340 12 1350 7 6 168 64 358 128
326 109 1210 408 1533 517 81 28 162 57 180 64 18 8 37 13 42 11 6 -1 11 -39
13 -83z m-5100 -483 c1 -58 -1 -110 -6 -117 -5 -9 -95 -12 -340 -14 -183 -1
-336 1 -339 5 -12 12 13 23 212 90 110 36 250 84 310 106 61 21 121 38 135 37
25 -2 25 -3 28 -107z m6271 -895 c8 -3 11 -8 8 -11 -3 -3 -97 -36 -209 -74
-111 -38 -309 -105 -438 -150 -129 -45 -273 -94 -320 -110 -47 -16 -132 -45
-190 -66 -58 -20 -213 -74 -345 -119 -132 -46 -268 -93 -302 -105 -35 -12 -67
-19 -73 -15 -6 4 -10 119 -10 325 0 266 2 320 14 327 15 8 1841 6 1865 -2z
m-543 -1686 c200 -59 315 -236 314 -482 -1 -158 -45 -282 -132 -367 -118 -116
-308 -160 -478 -111 -83 24 -111 39 -174 94 -145 125 -191 384 -108 617 21 59
61 117 112 163 42 39 135 87 167 87 10 0 25 5 33 10 21 15 205 7 266 -11z
m2139 7 c113 -26 208 -91 246 -170 32 -66 29 -70 -63 -81 l-54 -7 -35 45 c-43
56 -80 80 -148 97 -76 18 -189 -2 -251 -44 -56 -39 -62 -46 -102 -126 -28 -57
-32 -76 -36 -173 -4 -86 -1 -122 14 -170 46 -155 151 -237 305 -237 68 0 103
11 196 58 60 31 73 53 73 126 0 83 -10 90 -132 96 l-103 5 0 50 0 50 190 0
190 0 3 -178 2 -178 -27 -25 c-40 -37 -155 -88 -247 -109 -168 -39 -364 4
-472 103 -50 46 -94 117 -124 202 -33 93 -33 275 0 370 48 138 161 250 289
286 31 8 61 17 66 19 25 9 166 3 220 -9z m-7717 -18 c5 -7 40 -89 77 -183 36
-93 81 -206 100 -250 18 -44 45 -111 59 -150 15 -38 30 -79 36 -90 5 -11 23
-56 40 -100 18 -44 39 -97 47 -118 22 -50 11 -59 -72 -55 -77 3 -70 -4 -116
118 -18 47 -37 91 -42 98 -7 9 -64 12 -222 12 -158 0 -215 -3 -223 -12 -6 -7
-26 -55 -46 -107 -19 -52 -39 -97 -43 -102 -4 -4 -35 -9 -67 -10 -74 -3 -90
12 -65 63 16 31 31 69 66 163 9 22 19 49 24 60 8 18 39 99 133 345 20 52 55
140 76 196 22 55 40 106 40 112 0 16 19 20 106 21 54 1 85 -3 92 -11z m694 0
c8 -7 59 -85 113 -173 297 -485 295 -480 318 -480 l22 0 5 330 c3 182 7 331 8
333 1 1 29 2 61 2 44 0 60 -4 65 -16 10 -25 7 -918 -3 -933 -7 -10 -28 -14
-82 -12 -84 2 -70 -10 -171 154 -40 65 -82 133 -93 151 -11 18 -39 63 -62 102
-103 169 -149 238 -166 248 -37 22 -42 -13 -47 -339 l-5 -310 -54 -3 c-37 -2
-57 1 -62 10 -10 15 -12 908 -3 932 8 20 132 23 156 4z m1856 -7 c67 -27 108
-65 138 -128 62 -131 22 -311 -84 -376 -65 -40 -111 -49 -284 -54 -93 -3 -169
-6 -170 -7 -1 0 -4 -84 -7 -186 l-6 -185 -64 -3 c-45 -2 -67 1 -72 10 -10 15
-12 932 -2 941 3 4 119 7 257 6 215 0 257 -3 294 -18z m536 3 c3 -9 6 -93 6
-188 0 -120 4 -176 12 -184 9 -9 70 -12 213 -12 182 0 204 2 218 18 14 15 17
48 19 198 l3 179 64 3 c45 2 67 -1 72 -10 11 -17 11 -919 0 -936 -5 -9 -27
-12 -72 -10 l-64 3 -5 210 -5 209 -25 13 c-30 15 -365 18 -404 3 l-26 -10 0
-202 c0 -112 -4 -209 -9 -216 -5 -9 -27 -12 -72 -10 l-64 3 -3 465 c-1 256 0
471 3 478 7 19 131 16 139 -4z m1025 2 c8 -9 11 -114 11 -349 -1 -314 1 -339
19 -374 45 -88 106 -123 213 -123 108 0 171 39 207 130 11 27 16 114 20 380
l6 345 65 0 65 0 3 -360 c2 -312 0 -366 -14 -410 -27 -81 -58 -119 -126 -155
-82 -44 -127 -53 -248 -48 -139 6 -205 28 -268 90 -72 69 -80 94 -92 279 -15
238 -13 596 3 602 27 12 125 7 136 -7z m2173 -3 c9 -10 83 -128 165 -263 207
-339 241 -390 257 -390 8 0 18 6 23 13 4 6 10 156 13 332 l5 320 60 0 60 0 3
-469 c1 -297 -1 -473 -8 -480 -12 -12 -141 -8 -157 5 -6 6 -27 36 -46 67 -66
110 -319 517 -340 549 -24 35 -51 43 -61 17 -3 -9 -6 -150 -6 -314 0 -164 -3
-305 -6 -314 -5 -12 -21 -16 -65 -16 l-59 0 -2 466 c-2 256 1 472 5 480 12 22
139 19 159 -3z m-8109 -1886 c15 -10 17 -27 15 -112 l-3 -100 -398 -5 c-380
-5 -399 -6 -413 -24 -11 -16 -14 -62 -14 -215 0 -108 5 -203 10 -211 8 -13 61
-15 354 -18 l344 -3 6 -22 c3 -12 6 -59 6 -104 0 -71 -3 -84 -19 -93 -13 -6
-141 -10 -350 -10 -253 0 -332 -3 -338 -12 -4 -7 -10 -168 -13 -358 l-5 -345
-137 -3 -138 -3 0 820 c0 772 1 820 18 824 9 3 251 5 538 6 405 1 524 -2 537
-12z m624 7 l22 -6 3 -577 3 -576 24 -62 c29 -77 87 -142 161 -179 52 -27 63
-28 185 -28 122 0 133 2 182 27 67 35 117 89 142 155 20 52 21 73 21 642 0
460 3 591 13 597 16 10 219 17 253 9 l25 -7 -3 -617 -4 -617 -28 -85 c-16 -47
-39 -101 -51 -120 -54 -85 -165 -160 -290 -198 -135 -40 -427 -38 -558 5 -142
46 -271 165 -312 287 -40 117 -46 205 -52 775 -6 530 -5 555 12 568 19 13 207
19 252 7z m2417 -18 c50 -9 117 -29 152 -46 195 -94 280 -371 179 -588 -26
-56 -109 -152 -131 -152 -8 0 -14 -4 -14 -8 0 -9 -61 -37 -103 -47 -15 -4 -30
-11 -33 -16 -3 -5 -21 -9 -40 -9 -92 0 -98 -43 -13 -101 89 -60 163 -140 240
-259 38 -58 73 -110 79 -117 5 -7 10 -14 10 -17 0 -6 100 -164 132 -209 37
-52 25 -57 -145 -57 -107 0 -158 4 -169 13 -8 6 -89 122 -179 257 -180 270
-175 263 -239 333 -70 77 -129 100 -267 101 -61 1 -115 -3 -120 -7 -4 -5 -10
-162 -13 -350 l-5 -342 -130 -3 c-114 -2 -131 -1 -143 15 -10 14 -12 181 -12
810 1 721 2 794 17 809 15 15 56 16 437 11 320 -4 442 -9 510 -21z m1040 15
c10 -4 33 -30 50 -59 58 -96 438 -716 545 -889 58 -95 111 -174 117 -177 6 -2
17 0 25 5 12 7 14 98 16 560 2 380 6 554 13 559 19 12 208 12 230 0 20 -11 20
-17 20 -813 0 -611 -3 -806 -12 -815 -17 -17 -269 -17 -290 1 -8 6 -86 127
-172 267 -87 140 -167 267 -177 282 -10 15 -19 30 -19 33 0 3 -17 32 -38 63
-21 31 -42 64 -45 72 -4 8 -56 94 -116 190 -91 149 -111 175 -132 175 l-24 0
-5 -535 c-3 -294 -9 -541 -13 -547 -10 -15 -232 -19 -241 -4 -3 5 -6 372 -6
816 -1 607 2 810 11 816 16 9 239 10 263 0z m1704 -4 c17 -12 18 -1607 0
-1625 -17 -17 -249 -17 -266 0 -9 9 -12 205 -12 819 0 760 1 808 18 813 27 7
245 2 260 -7z m1540 7 c21 -6 22 -11 22 -115 l0 -109 -232 0 c-201 0 -234 -2
-250 -17 -17 -15 -18 -50 -18 -698 0 -516 -3 -684 -12 -693 -8 -8 -52 -12
-133 -12 -81 0 -125 4 -133 12 -9 9 -12 177 -12 692 0 411 -4 687 -10 696 -8
12 -50 16 -247 20 l-238 5 -3 107 c-2 95 -1 107 15 111 27 7 1225 8 1251 1z
m590 0 l30 -6 4 -577 3 -576 26 -62 c35 -83 80 -133 158 -174 63 -34 65 -34
190 -34 118 0 129 2 179 28 70 36 107 75 139 145 l27 57 4 595 c2 327 6 597 8
600 9 8 202 13 240 5 l35 -6 -3 -622 -3 -622 -28 -78 c-49 -140 -108 -209
-232 -271 -124 -61 -168 -70 -375 -70 -150 0 -197 4 -250 19 -83 24 -183 78
-238 129 -47 44 -102 119 -102 139 0 7 -7 24 -14 39 -8 15 -22 75 -30 133 -21
140 -24 1200 -3 1208 18 8 199 8 235 1z m2426 -18 c225 -39 345 -162 369 -378
18 -158 -20 -274 -121 -372 -51 -50 -192 -116 -248 -116 -76 0 -84 -46 -16
-92 86 -58 140 -109 202 -189 33 -42 60 -80 60 -82 0 -3 17 -32 38 -64 20 -32
42 -67 49 -78 7 -11 42 -67 78 -124 36 -57 64 -110 61 -118 -4 -10 -39 -13
-158 -13 -84 0 -158 4 -164 8 -6 4 -91 126 -190 272 -225 334 -243 355 -334
398 -48 22 -69 25 -167 26 -61 1 -115 -3 -120 -7 -4 -5 -10 -162 -13 -350 l-5
-342 -135 0 -135 0 -3 817 c-2 771 -1 817 15 822 10 3 205 3 433 1 317 -3 436
-7 504 -19z m1944 18 c22 -6 23 -9 20 -113 l-3 -106 -441 -5 c-353 -4 -444 -8
-457 -19 -15 -12 -17 -39 -17 -211 0 -197 0 -198 23 -204 12 -3 201 -6 420 -6
309 0 399 -3 402 -12 3 -7 7 -53 8 -102 3 -65 0 -92 -10 -102 -12 -12 -85 -14
-417 -14 -299 0 -405 -3 -414 -12 -17 -17 -17 -479 0 -496 9 -9 126 -12 463
-12 337 0 454 -3 463 -12 13 -13 17 -173 6 -202 -6 -14 -69 -16 -615 -16 -573
0 -609 1 -609 18 0 9 0 377 -1 816 0 647 2 801 13 807 15 10 1131 12 1166 3z"/>
<path d="M12495 16091 c-271 -53 -452 -239 -496 -511 -25 -154 44 -350 164
-474 115 -118 259 -178 421 -177 156 1 288 54 396 161 120 118 170 230 177
397 5 95 2 122 -16 183 -40 132 -99 220 -201 302 -117 93 -310 145 -445 119z
m138 -141 c142 -21 261 -110 329 -246 66 -134 65 -250 -4 -387 -52 -103 -208
-222 -208 -158 0 11 20 33 50 55 189 136 209 408 43 572 -85 82 -162 113 -206
80 -26 -20 -37 -70 -37 -173 0 -93 0 -93 -25 -93 -28 0 -27 -5 -25 122 2 154
-39 189 -157 131 -63 -31 -134 -105 -164 -171 -74 -161 -22 -362 121 -467 51
-37 62 -61 35 -71 -39 -15 -155 98 -203 196 -79 163 -37 367 103 498 71 67
116 91 200 108 77 15 69 15 148 4z m-233 -394 c0 -69 2 -76 26 -95 24 -19 40
-21 149 -21 109 0 125 2 149 21 23 18 26 27 26 82 0 88 14 103 39 47 26 -56
26 -103 2 -156 -26 -58 -59 -92 -112 -119 -66 -34 -74 -47 -76 -134 -1 -42 -2
-79 -3 -83 0 -5 -11 -8 -25 -8 -14 0 -25 3 -25 8 -6 168 -11 183 -63 206 -61
27 -118 94 -133 156 -10 43 -6 127 7 152 5 10 16 18 24 18 12 0 15 -16 15 -74z"/>
<path d="M11538 8910 c-21 -5 -55 -20 -75 -34 -118 -75 -162 -205 -141 -414
18 -182 136 -301 301 -302 119 0 218 64 273 176 27 56 28 67 29 194 0 173 -17
230 -91 306 -32 33 -65 56 -90 64 -54 16 -161 21 -206 10z"/>
<path d="M6082 8827 c-6 -6 -27 -57 -47 -112 -38 -106 -58 -158 -82 -216 -8
-20 -13 -47 -11 -60 3 -24 3 -24 154 -27 121 -2 153 0 163 12 9 11 -3 53 -59
201 -81 218 -91 235 -118 202z"/>
<path d="M8358 8900 c-16 -10 -18 -29 -18 -164 0 -123 3 -156 15 -166 23 -19
261 -9 301 12 87 47 118 111 95 198 -14 53 -42 86 -91 107 -45 19 -277 29
-302 13z"/>
<path d="M6763 6885 c-23 -16 -23 -19 -23 -240 0 -168 3 -226 13 -232 19 -13
269 -16 424 -5 155 11 208 27 254 78 89 98 74 284 -28 354 -63 44 -105 50
-368 56 -223 5 -252 4 -272 -11z"/>
<path d="M14062 6882 c-21 -21 -22 -30 -22 -236 0 -266 -16 -246 190 -246 233
1 392 15 442 41 79 40 117 107 118 206 0 78 -23 138 -69 180 -60 54 -107 63
-387 70 -248 6 -251 6 -272 -15z"/>
</g>
</svg>
